<?xml version="1.0" encoding="UTF-8"?>
<svg width="245px" height="140px" viewBox="0 0 245 140" version="1.1" xmlns="http://www.w3.org/2000/svg" xmlns:xlink="http://www.w3.org/1999/xlink">
    <title>bg 2</title>
    <g id="Page-1" stroke="none" stroke-width="1" fill="none" fill-rule="evenodd" opacity="0.246361142" stroke-linecap="round" stroke-linejoin="round">
        <g id="bg" transform="translate(1.000000, 1.000000)" fill="#02C8D0" fill-rule="nonzero" stroke="#30BFCA">
            <g id="Group" opacity="0.5">
                <polygon id="Path" points="30.0689 121.395 23.9446 122.461 22.7413 116.081 15.4575 117.348 16.6608 123.728 10.5365 124.792 11.9017 132.029 18.026 130.965 19.2286 137.343 26.5124 136.077 25.3091 129.698 31.4334 128.633"></polygon>
                <polygon id="Path" points="91.2595 23.7184 85.3906 21.7277 87.6395 15.6148 80.66 13.2478 78.4118 19.36 72.5429 17.3693 69.9926 24.3041 75.8608 26.2948 73.6119 32.4077 80.5914 34.7754 82.8403 28.6625 88.7085 30.6532"></polygon>
                <polygon id="Path" points="239.417 96.7396 233.917 99.535 230.759 93.8051 224.216 97.1313 227.374 102.86 221.874 105.657 225.457 112.156 230.957 109.361 234.116 115.09 240.658 111.765 237.5 106.036 243 103.239"></polygon>
                <path d="M4.47272,106.202 C6.93907,106.202 8.93844,104.282 8.93844,101.914 C8.93844,99.545 6.93907,97.6253 4.47272,97.6253 C2.00637,97.6253 0.00699,99.545 0.00699,101.914 C0.00699,104.282 2.00637,106.202 4.47272,106.202 Z" id="Path"></path>
                <path d="M72.853,45.7175 C73.5051,45.7175 74.0337,45.2099 74.0337,44.5838 C74.0337,43.9576 73.5051,43.45 72.853,43.45 C72.201,43.45 71.6724,43.9576 71.6724,44.5838 C71.6724,45.2099 72.201,45.7175 72.853,45.7175 Z" id="Path"></path>
                <path d="M15.7684,29.1214 C18.0751,29.1214 19.9451,27.3257 19.9451,25.1106 C19.9451,22.8955 18.0751,21.0998 15.7684,21.0998 C13.4616,21.0998 11.5916,22.8955 11.5916,25.1106 C11.5916,27.3257 13.4616,29.1214 15.7684,29.1214 Z" id="Path"></path>
                <path d="M201.485,81.6703 C202.79,81.6703 203.848,80.6546 203.848,79.4015 C203.848,78.1484 202.79,77.1326 201.485,77.1326 C200.18,77.1326 199.122,78.1484 199.122,79.4015 C199.122,80.6546 200.18,81.6703 201.485,81.6703 Z" id="Path"></path>
                <path d="M179.949,10.204 C182.871,10.204 185.239,7.92988 185.239,5.12462 C185.239,2.31937 182.871,0.04524 179.949,0.04524 C177.028,0.04524 174.66,2.31937 174.66,5.12462 C174.66,7.92988 177.028,10.204 179.949,10.204 Z" id="Path"></path>
            </g>
        </g>
    </g>
</svg>